<!DOCTYPE svg PUBLIC "-//W3C//DTD SVG 1.1//EN" "http://www.w3.org/Graphics/SVG/1.1/DTD/svg11.dtd">
<!-- Uploaded to: SVG Repo, www.svgrepo.com, Transformed by: SVG Repo Mixer Tools -->
<svg width="800px" height="800px" viewBox="0 0 20 20" xmlns="http://www.w3.org/2000/svg" fill="#45B0E3">
<g id="SVGRepo_bgCarrier" stroke-width="0"/>
<g id="SVGRepo_tracerCarrier" stroke-linecap="round" stroke-linejoin="round"/>
<g id="SVGRepo_iconCarrier"> <rect x="0" fill="none" width="20" height="20"/> <g> <path d="M13.9 13.8H8.5c-.2 0-.3-.1-.3-.4v-3h5.7c1.1 0 2.1-.9 2.1-2.1 0-1.2-1-2.1-2.1-2.1H8.2V4.1C8.2 2.9 7.2 2 6 2c-1.1 0-2 .9-2 2.1v9.2C4 16 5.5 17.9 8.6 18H14c1.1 0 2.1-1 2.1-2.1-.1-1.2-1.1-2.1-2.2-2.1z"/> </g> </g>
</svg>